<svg xmlns="http://www.w3.org/2000/svg" width="90.649" height="10.732" viewBox="0 0 90.649 10.732">
  <g id="Group_29841" data-name="Group 29841" transform="translate(-184.359 -2338.987)">
    <path id="Path_90068" data-name="Path 90068" d="M20.37,13.375H12.607V9H9.922V19.732h2.685V15.92H20.37v3.812h2.718V9H20.37Z" transform="translate(191.428 2329.987)" fill="#2772a8"/>
    <path id="Path_90069" data-name="Path 90069" d="M31.509,9H27.568l-6.036,4.944V9H18.848V19.732h2.683V17.173l2.625-2.154,3.905,4.713h3.493l-5.332-6.425Z" transform="translate(197.768 2329.987)" fill="#2772a8"/>
    <path id="Path_90070" data-name="Path 90070" d="M42.672,16.28,37.763,9H35.511V19.732h2.6s-.935-5.463,0-5.463,3.739,5.463,3.739,5.463h1.615l3.757-5.5v5.5h2.594V9H47.592Z" transform="translate(209.733 2329.987)" fill="#2772a8"/>
    <path id="Path_90071" data-name="Path 90071" d="M36.692,14.669a2.765,2.765,0,0,1-.524,1.719,2.091,2.091,0,0,1-.844.63,4.416,4.416,0,0,1-2.137.3,4.386,4.386,0,0,1-2.137-.3,2.093,2.093,0,0,1-.854-.63,2.787,2.787,0,0,1-.529-1.719V9H26.894v6.093a4.876,4.876,0,0,0,.921,3.023,4.049,4.049,0,0,0,1.49,1.1c.976.414,1.6.513,3.882.513s2.9-.1,3.873-.513a4,4,0,0,0,1.5-1.1,4.855,4.855,0,0,0,.918-3.023V9H36.692Z" transform="translate(203.564 2329.987)" fill="#2772a8"/>
    <path id="Path_90072" data-name="Path 90072" d="M52.819,9H50.476L44.468,19.732h2.86l.976-1.786H54.9l1.023,1.786h2.888Zm-3.184,6.637,1.977-3.558L53.6,15.637Z" transform="translate(216.201 2329.987)" fill="#2772a8"/>
    <path id="Path_90073" data-name="Path 90073" d="M12.768,9.514A15.909,15.909,0,0,0,7.629,9a15.942,15.942,0,0,0-5.136.514,3.9,3.9,0,0,0-1.5,1.1A4.906,4.906,0,0,0,.076,13.64v1.453a4.9,4.9,0,0,0,.918,3.023,4.041,4.041,0,0,0,1.5,1.1,15.964,15.964,0,0,0,5.136.511,15.931,15.931,0,0,0,5.138-.511,4.034,4.034,0,0,0,1.5-1.1,4.9,4.9,0,0,0,.921-3.023V13.64a4.906,4.906,0,0,0-.921-3.023,3.89,3.89,0,0,0-1.5-1.1m-.211,4.851v.314a2.815,2.815,0,0,1-.548,1.769,2.166,2.166,0,0,1-.877.644,12.718,12.718,0,0,1-3.5.311,12.7,12.7,0,0,1-3.5-.311,2.252,2.252,0,0,1-.884-.644,2.881,2.881,0,0,1-.535-1.769v-.621a2.907,2.907,0,0,1,.535-1.779,2.3,2.3,0,0,1,.884-.644,12.778,12.778,0,0,1,3.5-.3,12.8,12.8,0,0,1,3.5.3,2.214,2.214,0,0,1,.877.644,2.841,2.841,0,0,1,.548,1.779Z" transform="translate(184.283 2329.987)" fill="#2772a8"/>
  </g>
</svg>
